<svg width="92" height="29" viewBox="0 0 92 29" fill="none" xmlns="http://www.w3.org/2000/svg">
<rect width="92" height="29" rx="2" fill="white"/>
<path d="M28.8565 21.4545H30.1307V17.9815H30.2074C30.4375 18.3991 30.9062 19.1278 32.0994 19.1278C33.6847 19.1278 34.8352 17.858 34.8352 15.7401C34.8352 13.6179 33.6676 12.3693 32.0866 12.3693C30.8722 12.3693 30.4332 13.1108 30.2074 13.5156H30.1009V12.4545H28.8565V21.4545ZM30.1051 15.7273C30.1051 14.3594 30.7017 13.4517 31.8139 13.4517C32.9688 13.4517 33.5483 14.4276 33.5483 15.7273C33.5483 17.0398 32.9517 18.0412 31.8139 18.0412C30.7188 18.0412 30.1051 17.1037 30.1051 15.7273ZM36.2628 19H37.5369V15.0028C37.5369 14.1463 38.1974 13.5284 39.1009 13.5284C39.3651 13.5284 39.6634 13.5753 39.7656 13.6051V12.3864C39.6378 12.3693 39.3864 12.3565 39.2244 12.3565C38.4574 12.3565 37.8011 12.7912 37.5625 13.4943H37.4943V12.4545H36.2628V19ZM43.4549 19.1321C44.8825 19.1321 45.8924 18.429 46.1822 17.3636L44.9762 17.1463C44.7461 17.7642 44.1921 18.0795 43.4677 18.0795C42.3768 18.0795 41.6438 17.3722 41.6097 16.1108H46.2631V15.6591C46.2631 13.294 44.8484 12.3693 43.3654 12.3693C41.5415 12.3693 40.3398 13.7585 40.3398 15.7699C40.3398 17.8026 41.5245 19.1321 43.4549 19.1321ZM41.614 15.1562C41.6651 14.2273 42.3384 13.4219 43.3739 13.4219C44.3626 13.4219 45.0103 14.1548 45.0146 15.1562H41.614ZM50.7919 12.4545H49.3814V11.8665C49.3814 11.2869 49.62 10.9716 50.2422 10.9716C50.5064 10.9716 50.6939 11.0312 50.8132 11.0696L51.1115 10.0384C50.9325 9.97017 50.5618 9.86364 50.0462 9.86364C49.0107 9.86364 48.103 10.4688 48.103 11.696V12.4545H47.093V13.4773H48.103V19H49.3814V13.4773H50.7919V12.4545ZM53.3807 10.2727H52.1065V19H53.3807V10.2727ZM55.0948 19H56.369V12.4545H55.0948V19ZM55.7383 11.4446C56.1772 11.4446 56.5437 11.1037 56.5437 10.6861C56.5437 10.2685 56.1772 9.9233 55.7383 9.9233C55.2951 9.9233 54.9329 10.2685 54.9329 10.6861C54.9329 11.1037 55.2951 11.4446 55.7383 11.4446ZM60.8274 21.5909C62.4936 21.5909 63.7805 20.8281 63.7805 19.1449V12.4545H62.532V13.5156H62.4382C62.2124 13.1108 61.7607 12.3693 60.5419 12.3693C58.9609 12.3693 57.7976 13.6179 57.7976 15.7017C57.7976 17.7898 58.9865 18.902 60.5334 18.902C61.7351 18.902 62.1996 18.2244 62.4297 17.8068H62.5107V19.0938C62.5107 20.1207 61.8075 20.5639 60.8402 20.5639C59.7791 20.5639 59.3658 20.0312 59.1399 19.6562L58.0447 20.108C58.3899 20.9091 59.2635 21.5909 60.8274 21.5909ZM60.8146 17.8452C59.6768 17.8452 59.0845 16.9716 59.0845 15.6847C59.0845 14.4276 59.6641 13.4517 60.8146 13.4517C61.9268 13.4517 62.5234 14.3594 62.5234 15.6847C62.5234 17.0355 61.9141 17.8452 60.8146 17.8452ZM66.7635 15.1136C66.7635 14.0696 67.424 13.473 68.3317 13.473C69.2095 13.473 69.7337 14.0312 69.7337 14.9901V19H71.0078V14.8366C71.0078 13.2045 70.1129 12.3693 68.7663 12.3693C67.7479 12.3693 67.1342 12.8125 66.8274 13.5199H66.7464V10.2727H65.4893V19H66.7635V15.1136ZM75.7635 12.4545H74.4212V10.8864H73.147V12.4545H72.1882V13.4773H73.147V17.3423C73.1428 18.5312 74.0504 19.1065 75.0561 19.0852C75.4609 19.081 75.7337 19.0043 75.8828 18.9489L75.6527 17.8963C75.5675 17.9134 75.4098 17.9517 75.2053 17.9517C74.7919 17.9517 74.4212 17.8153 74.4212 17.0781V13.4773H75.7635V12.4545Z" fill="black"/>
<path d="M14 15H19V20L14 15Z" fill="#06B6D4"/>
<path d="M14 10L24 10V20L14 10Z" fill="#06B6D4"/>
</svg>
